<svg xmlns="http://www.w3.org/2000/svg" viewBox="0 0 64 64" role="img" aria-label="Kimu.rec">
  <rect width="64" height="64" fill="#ffffff"/>
  <path fill="#111111" d="M14.84 57.91L14.75 58L14.67 58Q13.89 58 13.24 57.78Q12.59 57.57 12.07 57.18Q11.55 56.79 11.16 56.27Q10.77 55.75 10.55 55.1Q10.33 54.45 10.33 53.67L10.33 53.58L10.42 53.49L14.84 53.49L14.84 53.49Q14.84 53.49 14.84 53.49Q14.84 53.49 14.84 53.49Q14.84 53.49 14.84 53.49Q14.84 53.49 14.84 53.49Q14.84 53.49 14.84 53.49L14.84 53.49ZM14.49 57.91L14.49 53.49L14.49 53.49Q14.49 53.49 14.49 53.49Q14.49 53.49 14.49 53.49Q14.49 53.49 14.49 53.49Q14.49 53.49 14.49 53.49Q14.49 53.49 14.49 53.49L14.49 53.49L18.91 53.49L19 53.58L19 53.67Q19 54.45 18.78 55.1Q18.57 55.75 18.18 56.27Q17.79 56.79 17.27 57.18Q16.75 57.57 16.1 57.78Q15.45 58 14.67 58L14.58 58ZM14.49 49.42L14.58 49.33L14.67 49.33Q15.45 49.33 16.1 49.55Q16.75 49.77 17.27 50.16Q17.79 50.55 18.18 51.07Q18.57 51.59 18.78 52.24Q19 52.89 19 53.67L19 53.75L18.91 53.84L14.49 53.84L14.49 53.84Q14.49 53.84 14.49 53.84Q14.49 53.84 14.49 53.84Q14.49 53.84 14.49 53.84Q14.49 53.84 14.49 53.84Q14.49 53.84 14.49 53.84L14.49 53.84ZM14.84 49.42L14.84 53.84L14.84 53.84Q14.84 53.84 14.84 53.84Q14.84 53.84 14.84 53.84Q14.84 53.84 14.84 53.84Q14.84 53.84 14.84 53.84Q14.84 53.84 14.84 53.84L14.84 53.84L10.42 53.84L10.33 53.75L10.33 53.67Q10.33 52.89 10.55 52.24Q10.77 51.59 11.16 51.07Q11.55 50.55 12.07 50.16Q12.59 49.77 13.24 49.55Q13.89 49.33 14.67 49.33L14.75 49.33ZM14.84 49.25L14.75 49.33L14.67 49.33Q13.89 49.33 13.24 49.12Q12.59 48.9 12.07 48.51Q11.55 48.12 11.16 47.6Q10.77 47.08 10.55 46.43Q10.33 45.78 10.33 45L10.33 44.91L10.42 44.83L14.84 44.83L14.84 44.83Q14.84 44.83 14.84 44.83Q14.84 44.83 14.84 44.83Q14.84 44.83 14.84 44.83Q14.84 44.83 14.84 44.83Q14.84 44.83 14.84 44.83L14.84 44.83ZM14.49 49.25L14.49 44.83L14.49 44.83Q14.49 44.83 14.49 44.83Q14.49 44.83 14.49 44.83Q14.49 44.83 14.49 44.83Q14.49 44.83 14.49 44.83Q14.49 44.83 14.49 44.83L14.49 44.83L18.91 44.83L19 44.91L19 45Q19 45.78 18.78 46.43Q18.57 47.08 18.18 47.6Q17.79 48.12 17.27 48.51Q16.75 48.9 16.1 49.12Q15.45 49.33 14.67 49.33L14.58 49.33ZM14.49 40.75L14.58 40.67L14.67 40.67Q15.45 40.67 16.1 40.88Q16.75 41.1 17.27 41.49Q17.79 41.88 18.18 42.4Q18.57 42.92 18.78 43.57Q19 44.22 19 45L19 45.09L18.91 45.17L14.49 45.17L14.49 45.17Q14.49 45.17 14.49 45.17Q14.49 45.17 14.49 45.17Q14.49 45.17 14.49 45.17Q14.49 45.17 14.49 45.17Q14.49 45.17 14.49 45.17L14.49 45.17ZM14.84 40.75L14.84 45.17L14.84 45.17Q14.84 45.17 14.84 45.17Q14.84 45.17 14.84 45.17Q14.84 45.17 14.84 45.17Q14.84 45.17 14.84 45.17Q14.84 45.17 14.84 45.17L14.84 45.17L10.42 45.17L10.33 45.09L10.33 45Q10.33 44.22 10.55 43.57Q10.77 42.92 11.16 42.4Q11.55 41.88 12.07 41.49Q12.59 41.1 13.24 40.88Q13.89 40.67 14.67 40.67L14.75 40.67ZM14.84 40.58L14.75 40.67L14.67 40.67Q13.89 40.67 13.24 40.45Q12.59 40.23 12.07 39.84Q11.55 39.45 11.16 38.93Q10.77 38.41 10.55 37.76Q10.33 37.11 10.33 36.33L10.33 36.25L10.42 36.16L14.84 36.16L14.84 36.16Q14.84 36.16 14.84 36.16Q14.84 36.16 14.84 36.16Q14.84 36.16 14.84 36.16Q14.84 36.16 14.84 36.16Q14.84 36.16 14.84 36.16L14.84 36.16ZM14.49 40.58L14.49 36.16L14.49 36.16Q14.49 36.16 14.49 36.16Q14.49 36.16 14.49 36.16Q14.49 36.16 14.49 36.16Q14.49 36.16 14.49 36.16Q14.49 36.16 14.49 36.16L14.49 36.16L18.91 36.16L19 36.25L19 36.33Q19 37.11 18.78 37.76Q18.57 38.41 18.18 38.93Q17.79 39.45 17.27 39.84Q16.75 40.23 16.1 40.45Q15.45 40.67 14.67 40.67L14.58 40.67ZM14.49 32.09L14.58 32L14.67 32Q15.45 32 16.1 32.22Q16.75 32.43 17.27 32.82Q17.79 33.21 18.18 33.73Q18.57 34.25 18.78 34.9Q19 35.55 19 36.33L19 36.42L18.91 36.51L14.49 36.51L14.49 36.51Q14.49 36.51 14.49 36.51Q14.49 36.51 14.49 36.51Q14.49 36.51 14.49 36.51Q14.49 36.51 14.49 36.51Q14.49 36.51 14.49 36.51L14.49 36.51ZM14.84 32.09L14.84 36.51L14.84 36.51Q14.84 36.51 14.84 36.51Q14.84 36.51 14.84 36.51Q14.84 36.51 14.84 36.51Q14.84 36.51 14.84 36.51Q14.84 36.51 14.84 36.51L14.84 36.51L10.42 36.51L10.33 36.42L10.33 36.33Q10.33 35.55 10.55 34.9Q10.77 34.25 11.16 33.73Q11.55 33.21 12.07 32.82Q12.59 32.43 13.24 32.22Q13.89 32 14.67 32L14.75 32ZM14.84 31.91L14.75 32L14.67 32Q13.89 32 13.24 31.78Q12.59 31.57 12.07 31.18Q11.55 30.79 11.16 30.27Q10.77 29.75 10.55 29.1Q10.33 28.45 10.33 27.67L10.33 27.58L10.42 27.49L14.84 27.49L14.84 27.49Q14.84 27.49 14.84 27.49Q14.84 27.49 14.84 27.49Q14.84 27.49 14.84 27.49Q14.84 27.49 14.84 27.49Q14.84 27.49 14.84 27.49L14.84 27.49ZM14.49 31.91L14.49 27.49L14.49 27.49Q14.49 27.49 14.49 27.49Q14.49 27.49 14.49 27.49Q14.49 27.49 14.49 27.49Q14.49 27.49 14.49 27.49Q14.49 27.49 14.49 27.49L14.49 27.49L18.91 27.49L19 27.58L19 27.67Q19 28.45 18.78 29.1Q18.57 29.75 18.18 30.27Q17.79 30.79 17.27 31.18Q16.75 31.57 16.1 31.78Q15.45 32 14.67 32L14.58 32ZM14.49 23.42L14.58 23.33L14.67 23.33Q15.45 23.33 16.1 23.55Q16.75 23.77 17.27 24.16Q17.79 24.55 18.18 25.07Q18.57 25.59 18.78 26.24Q19 26.89 19 27.67L19 27.75L18.91 27.84L14.49 27.84L14.49 27.84Q14.49 27.84 14.49 27.84Q14.49 27.84 14.49 27.84Q14.49 27.84 14.49 27.84Q14.49 27.84 14.49 27.84Q14.49 27.84 14.49 27.84L14.49 27.84ZM14.84 23.42L14.84 27.84L14.84 27.84Q14.84 27.84 14.84 27.84Q14.84 27.84 14.84 27.84Q14.84 27.84 14.84 27.84Q14.84 27.84 14.84 27.84Q14.84 27.84 14.84 27.84L14.84 27.84L10.42 27.84L10.33 27.75L10.33 27.67Q10.33 26.89 10.55 26.24Q10.77 25.59 11.16 25.07Q11.55 24.55 12.07 24.16Q12.59 23.77 13.24 23.55Q13.89 23.33 14.67 23.33L14.75 23.33ZM14.84 23.25L14.75 23.33L14.67 23.33Q13.89 23.33 13.24 23.12Q12.59 22.9 12.07 22.51Q11.55 22.12 11.16 21.6Q10.77 21.08 10.55 20.43Q10.33 19.78 10.33 19L10.33 18.91L10.42 18.83L14.84 18.83L14.84 18.83Q14.84 18.83 14.84 18.83Q14.84 18.83 14.84 18.83Q14.84 18.83 14.84 18.83Q14.84 18.83 14.84 18.83Q14.84 18.83 14.84 18.83L14.84 18.83ZM14.49 23.25L14.49 18.83L14.49 18.83Q14.49 18.83 14.49 18.83Q14.49 18.83 14.49 18.83Q14.49 18.83 14.49 18.83Q14.49 18.83 14.49 18.83Q14.49 18.83 14.49 18.83L14.49 18.83L18.91 18.83L19 18.91L19 19Q19 19.78 18.78 20.43Q18.57 21.08 18.18 21.6Q17.79 22.12 17.27 22.51Q16.75 22.9 16.1 23.12Q15.45 23.33 14.67 23.33L14.58 23.33ZM14.49 14.75L14.58 14.67L14.67 14.67Q15.45 14.67 16.1 14.88Q16.75 15.1 17.27 15.49Q17.79 15.88 18.18 16.4Q18.57 16.92 18.78 17.57Q19 18.22 19 19L19 19.09L18.91 19.17L14.49 19.17L14.49 19.17Q14.49 19.17 14.49 19.17Q14.49 19.17 14.49 19.17Q14.49 19.17 14.49 19.17Q14.49 19.17 14.49 19.17Q14.49 19.17 14.49 19.17L14.49 19.17ZM14.84 14.75L14.84 19.17L14.84 19.17Q14.84 19.17 14.84 19.17Q14.84 19.17 14.84 19.17Q14.84 19.17 14.84 19.17Q14.84 19.17 14.84 19.17Q14.84 19.17 14.84 19.17L14.84 19.17L10.42 19.17L10.33 19.09L10.33 19Q10.33 18.22 10.55 17.57Q10.77 16.92 11.16 16.4Q11.55 15.88 12.07 15.49Q12.59 15.1 13.24 14.88Q13.89 14.67 14.67 14.67L14.75 14.67ZM14.84 14.58L14.75 14.67L14.67 14.67Q13.89 14.67 13.24 14.45Q12.59 14.23 12.07 13.84Q11.55 13.45 11.16 12.93Q10.77 12.41 10.55 11.76Q10.33 11.11 10.33 10.33L10.33 10.25L10.42 10.16L14.84 10.16L14.84 10.16Q14.84 10.16 14.84 10.16Q14.84 10.16 14.84 10.16Q14.84 10.16 14.84 10.16Q14.84 10.16 14.84 10.16Q14.84 10.16 14.84 10.16L14.84 10.16ZM14.49 14.58L14.49 10.16L14.49 10.16Q14.49 10.16 14.49 10.16Q14.49 10.16 14.49 10.16Q14.49 10.16 14.49 10.16Q14.49 10.16 14.49 10.16Q14.49 10.16 14.49 10.16L14.49 10.16L18.91 10.16L19 10.25L19 10.33Q19 11.11 18.78 11.76Q18.57 12.41 18.18 12.93Q17.79 13.45 17.27 13.84Q16.75 14.23 16.1 14.45Q15.45 14.67 14.67 14.67L14.58 14.67ZM14.49 6.09L14.58 6L14.67 6Q15.45 6 16.1 6.22Q16.75 6.43 17.27 6.82Q17.79 7.21 18.18 7.73Q18.57 8.25 18.78 8.9Q19 9.55 19 10.33L19 10.42L18.91 10.51L14.49 10.51L14.49 10.51Q14.49 10.51 14.49 10.51Q14.49 10.51 14.49 10.51Q14.49 10.51 14.49 10.51Q14.49 10.51 14.49 10.51Q14.49 10.51 14.49 10.51L14.49 10.51ZM14.84 6.09L14.84 10.51L14.84 10.51Q14.84 10.51 14.84 10.51Q14.84 10.51 14.84 10.51Q14.84 10.51 14.84 10.51Q14.84 10.51 14.84 10.51Q14.84 10.51 14.84 10.51L14.84 10.51L10.42 10.51L10.33 10.42L10.33 10.33Q10.33 9.55 10.55 8.9Q10.77 8.25 11.16 7.73Q11.55 7.21 12.07 6.82Q12.59 6.43 13.24 6.22Q13.89 6 14.67 6L14.75 6ZM23.51 40.58L23.42 40.67L23.33 40.67Q22.55 40.67 21.9 40.45Q21.25 40.23 20.73 39.84Q20.21 39.45 19.82 38.93Q19.43 38.41 19.22 37.76Q19 37.11 19 36.33L19 36.25L19.09 36.16L23.51 36.16L23.51 36.16Q23.51 36.16 23.51 36.16Q23.51 36.16 23.51 36.16Q23.51 36.16 23.51 36.16Q23.51 36.16 23.51 36.16Q23.51 36.16 23.51 36.16L23.51 36.16ZM23.16 40.58L23.16 36.16L23.16 36.16Q23.16 36.16 23.16 36.16Q23.16 36.16 23.16 36.16Q23.16 36.16 23.16 36.16Q23.16 36.16 23.16 36.16Q23.16 36.16 23.16 36.16L23.16 36.16L27.58 36.16L27.67 36.25L27.67 36.33Q27.67 37.11 27.45 37.76Q27.23 38.41 26.84 38.93Q26.45 39.45 25.93 39.84Q25.41 40.23 24.76 40.45Q24.11 40.67 23.33 40.67L23.25 40.67ZM23.16 32.09L23.25 32L23.33 32Q24.11 32 24.76 32.22Q25.41 32.43 25.93 32.82Q26.45 33.21 26.84 33.73Q27.23 34.25 27.45 34.9Q27.67 35.55 27.67 36.33L27.67 36.42L27.58 36.51L23.16 36.51L23.16 36.51Q23.16 36.51 23.16 36.51Q23.16 36.51 23.16 36.51Q23.16 36.51 23.16 36.51Q23.16 36.51 23.16 36.51Q23.16 36.51 23.16 36.51L23.16 36.51ZM23.51 32.09L23.51 36.51L23.51 36.51Q23.51 36.51 23.51 36.51Q23.51 36.51 23.51 36.51Q23.51 36.51 23.51 36.51Q23.51 36.51 23.51 36.51Q23.51 36.51 23.51 36.51L23.51 36.51L19.09 36.51L19 36.42L19 36.33Q19 35.55 19.22 34.9Q19.43 34.25 19.82 33.73Q20.21 33.21 20.73 32.82Q21.25 32.43 21.9 32.22Q22.55 32 23.33 32L23.42 32ZM32.17 40.58L32.09 40.67L32 40.67Q31.22 40.67 30.57 40.45Q29.92 40.23 29.4 39.84Q28.88 39.45 28.49 38.93Q28.1 38.41 27.88 37.76Q27.67 37.11 27.67 36.33L27.67 36.25L27.75 36.16L32.17 36.16L32.17 36.16Q32.17 36.16 32.17 36.16Q32.17 36.16 32.17 36.16Q32.17 36.16 32.17 36.16Q32.17 36.16 32.17 36.16Q32.17 36.16 32.17 36.16L32.17 36.16ZM31.83 40.58L31.83 36.16L31.83 36.16Q31.83 36.16 31.83 36.16Q31.83 36.16 31.83 36.16Q31.83 36.16 31.83 36.16Q31.83 36.16 31.83 36.16Q31.83 36.16 31.83 36.16L31.83 36.16L36.25 36.16L36.33 36.25L36.33 36.33Q36.33 37.11 36.12 37.76Q35.9 38.41 35.51 38.93Q35.12 39.45 34.6 39.84Q34.08 40.23 33.43 40.45Q32.78 40.67 32 40.67L31.91 40.67ZM31.83 32.09L31.91 32L32 32Q32.78 32 33.43 32.22Q34.08 32.43 34.6 32.82Q35.12 33.21 35.51 33.73Q35.9 34.25 36.12 34.9Q36.33 35.55 36.33 36.33L36.33 36.42L36.25 36.51L31.83 36.51L31.83 36.51Q31.83 36.51 31.83 36.51Q31.83 36.51 31.83 36.51Q31.83 36.51 31.83 36.51Q31.83 36.51 31.83 36.51Q31.83 36.51 31.83 36.51L31.83 36.51ZM32.17 32.09L32.17 36.51L32.17 36.51Q32.17 36.51 32.17 36.51Q32.17 36.51 32.17 36.51Q32.17 36.51 32.17 36.51Q32.17 36.51 32.17 36.51Q32.17 36.51 32.17 36.51L32.17 36.51L27.75 36.51L27.67 36.42L27.67 36.33Q27.67 35.55 27.88 34.9Q28.1 34.25 28.49 33.73Q28.88 33.21 29.4 32.82Q29.92 32.43 30.57 32.22Q31.22 32 32 32L32.09 32ZM32.17 31.91L32.09 32L32 32Q31.22 32 30.57 31.78Q29.92 31.57 29.4 31.18Q28.88 30.79 28.49 30.27Q28.1 29.75 27.88 29.1Q27.67 28.45 27.67 27.67L27.67 27.58L27.75 27.49L32.17 27.49L32.17 27.49Q32.17 27.49 32.17 27.49Q32.17 27.49 32.17 27.49Q32.17 27.49 32.17 27.49Q32.17 27.49 32.17 27.49Q32.17 27.49 32.17 27.49L32.17 27.49ZM31.83 31.91L31.83 27.49L31.83 27.49Q31.83 27.49 31.83 27.49Q31.83 27.49 31.83 27.49Q31.83 27.49 31.83 27.49Q31.83 27.49 31.83 27.49Q31.83 27.49 31.83 27.49L31.83 27.49L36.25 27.49L36.33 27.58L36.33 27.67Q36.33 28.45 36.12 29.1Q35.9 29.75 35.51 30.27Q35.12 30.79 34.6 31.18Q34.08 31.57 33.43 31.78Q32.78 32 32 32L31.91 32ZM31.83 23.42L31.91 23.33L32 23.33Q32.78 23.33 33.43 23.55Q34.08 23.77 34.6 24.16Q35.12 24.55 35.51 25.07Q35.9 25.59 36.12 26.24Q36.33 26.89 36.33 27.67L36.33 27.75L36.25 27.84L31.83 27.84L31.83 27.84Q31.83 27.84 31.83 27.84Q31.83 27.84 31.83 27.84Q31.83 27.84 31.83 27.84Q31.83 27.84 31.83 27.84Q31.83 27.84 31.83 27.84L31.83 27.84ZM32.17 23.42L32.17 27.84L32.17 27.84Q32.17 27.84 32.17 27.84Q32.17 27.84 32.17 27.84Q32.17 27.84 32.17 27.84Q32.17 27.84 32.17 27.84Q32.17 27.84 32.17 27.84L32.17 27.84L27.75 27.84L27.67 27.75L27.67 27.67Q27.67 26.89 27.88 26.24Q28.1 25.59 28.49 25.07Q28.88 24.55 29.4 24.16Q29.92 23.77 30.57 23.55Q31.22 23.33 32 23.33L32.09 23.33ZM40.84 49.25L40.75 49.33L40.67 49.33Q39.89 49.33 39.24 49.12Q38.59 48.9 38.07 48.51Q37.55 48.12 37.16 47.6Q36.77 47.08 36.55 46.43Q36.33 45.78 36.33 45L36.33 44.91L36.42 44.83L40.84 44.83L40.84 44.83Q40.84 44.83 40.84 44.83Q40.84 44.83 40.84 44.83Q40.84 44.83 40.84 44.83Q40.84 44.83 40.84 44.83Q40.84 44.83 40.84 44.83L40.84 44.83ZM40.49 49.25L40.49 44.83L40.49 44.83Q40.49 44.83 40.49 44.83Q40.49 44.83 40.49 44.83Q40.49 44.83 40.49 44.83Q40.49 44.83 40.49 44.83Q40.49 44.83 40.49 44.83L40.49 44.83L44.91 44.83L45 44.91L45 45Q45 45.78 44.78 46.43Q44.57 47.08 44.18 47.6Q43.79 48.12 43.27 48.51Q42.75 48.9 42.1 49.12Q41.45 49.33 40.67 49.33L40.58 49.33ZM40.49 40.75L40.58 40.67L40.67 40.67Q41.45 40.67 42.1 40.88Q42.75 41.1 43.27 41.49Q43.79 41.88 44.18 42.4Q44.57 42.92 44.78 43.57Q45 44.22 45 45L45 45.09L44.91 45.17L40.49 45.17L40.49 45.17Q40.49 45.17 40.49 45.17Q40.49 45.17 40.49 45.17Q40.49 45.17 40.49 45.17Q40.49 45.17 40.49 45.17Q40.49 45.17 40.49 45.17L40.49 45.17ZM40.84 40.75L40.84 45.17L40.84 45.17Q40.84 45.17 40.84 45.17Q40.84 45.17 40.84 45.17Q40.84 45.17 40.84 45.17Q40.84 45.17 40.84 45.17Q40.84 45.17 40.84 45.17L40.84 45.17L36.42 45.17L36.33 45.09L36.33 45Q36.33 44.22 36.55 43.57Q36.77 42.92 37.16 42.4Q37.55 41.88 38.07 41.49Q38.59 41.1 39.24 40.88Q39.89 40.67 40.67 40.67L40.75 40.67ZM40.84 23.25L40.75 23.33L40.67 23.33Q39.89 23.33 39.24 23.12Q38.59 22.9 38.07 22.51Q37.55 22.12 37.16 21.6Q36.77 21.08 36.55 20.43Q36.33 19.78 36.33 19L36.33 18.91L36.42 18.83L40.84 18.83L40.84 18.83Q40.84 18.83 40.84 18.83Q40.84 18.83 40.84 18.83Q40.84 18.83 40.84 18.83Q40.84 18.83 40.84 18.83Q40.84 18.83 40.84 18.83L40.84 18.83ZM40.49 23.25L40.49 18.83L40.49 18.83Q40.49 18.83 40.49 18.83Q40.49 18.83 40.49 18.83Q40.49 18.83 40.49 18.83Q40.49 18.83 40.49 18.83Q40.49 18.83 40.49 18.83L40.49 18.83L44.91 18.83L45 18.91L45 19Q45 19.78 44.78 20.43Q44.57 21.08 44.18 21.6Q43.79 22.12 43.27 22.51Q42.75 22.9 42.1 23.12Q41.45 23.33 40.67 23.33L40.58 23.33ZM40.49 14.75L40.58 14.67L40.67 14.67Q41.45 14.67 42.1 14.88Q42.75 15.1 43.27 15.49Q43.79 15.88 44.18 16.4Q44.57 16.92 44.78 17.57Q45 18.22 45 19L45 19.09L44.91 19.17L40.49 19.17L40.49 19.17Q40.49 19.17 40.49 19.17Q40.49 19.17 40.49 19.17Q40.49 19.17 40.49 19.17Q40.49 19.17 40.49 19.17Q40.49 19.17 40.49 19.17L40.49 19.17ZM40.84 14.75L40.84 19.17L40.84 19.17Q40.84 19.17 40.84 19.17Q40.84 19.17 40.84 19.17Q40.84 19.17 40.84 19.17Q40.84 19.17 40.84 19.17Q40.84 19.17 40.84 19.17L40.84 19.17L36.42 19.17L36.33 19.09L36.33 19Q36.33 18.22 36.55 17.57Q36.77 16.92 37.16 16.4Q37.55 15.88 38.07 15.49Q38.59 15.1 39.24 14.88Q39.89 14.67 40.67 14.67L40.75 14.67ZM49.51 57.91L49.42 58L49.33 58Q48.55 58 47.9 57.78Q47.25 57.57 46.73 57.18Q46.21 56.79 45.82 56.27Q45.43 55.75 45.22 55.1Q45 54.45 45 53.67L45 53.58L45.09 53.49L49.51 53.49L49.51 53.49Q49.51 53.49 49.51 53.49Q49.51 53.49 49.51 53.49Q49.51 53.49 49.51 53.49Q49.51 53.49 49.51 53.49Q49.51 53.49 49.51 53.49L49.51 53.49ZM49.16 57.91L49.16 53.49L49.16 53.49Q49.16 53.49 49.16 53.49Q49.16 53.49 49.16 53.49Q49.16 53.49 49.16 53.49Q49.16 53.49 49.16 53.49Q49.16 53.49 49.16 53.49L49.16 53.49L53.58 53.49L53.67 53.58L53.67 53.67Q53.67 54.45 53.45 55.1Q53.23 55.75 52.84 56.27Q52.45 56.79 51.93 57.18Q51.41 57.57 50.76 57.78Q50.11 58 49.33 58L49.25 58ZM49.16 49.42L49.25 49.33L49.33 49.33Q50.11 49.33 50.76 49.55Q51.41 49.77 51.93 50.16Q52.45 50.55 52.84 51.07Q53.23 51.59 53.45 52.24Q53.67 52.89 53.67 53.67L53.67 53.75L53.58 53.84L49.16 53.84L49.16 53.84Q49.16 53.84 49.16 53.84Q49.16 53.84 49.16 53.84Q49.16 53.84 49.16 53.84Q49.16 53.84 49.16 53.84Q49.16 53.84 49.16 53.84L49.16 53.84ZM49.51 49.42L49.51 53.84L49.51 53.84Q49.51 53.84 49.51 53.84Q49.51 53.84 49.51 53.84Q49.51 53.84 49.51 53.84Q49.51 53.84 49.51 53.84Q49.51 53.84 49.51 53.84L49.51 53.84L45.09 53.84L45 53.75L45 53.67Q45 52.89 45.22 52.24Q45.43 51.59 45.82 51.07Q46.21 50.55 46.73 50.16Q47.25 49.77 47.9 49.55Q48.55 49.33 49.33 49.33L49.42 49.33ZM49.51 14.58L49.42 14.67L49.33 14.67Q48.55 14.67 47.9 14.45Q47.25 14.23 46.73 13.84Q46.21 13.45 45.82 12.93Q45.43 12.41 45.22 11.76Q45 11.11 45 10.33L45 10.25L45.09 10.16L49.51 10.16L49.51 10.16Q49.51 10.16 49.51 10.16Q49.51 10.16 49.51 10.16Q49.51 10.16 49.51 10.16Q49.51 10.16 49.51 10.16Q49.51 10.16 49.51 10.16L49.51 10.16ZM49.16 14.58L49.16 10.16L49.16 10.16Q49.16 10.16 49.16 10.16Q49.16 10.16 49.16 10.16Q49.16 10.16 49.16 10.16Q49.16 10.16 49.16 10.16Q49.16 10.16 49.16 10.16L49.16 10.16L53.58 10.16L53.67 10.25L53.67 10.33Q53.67 11.11 53.45 11.76Q53.23 12.41 52.84 12.93Q52.45 13.45 51.93 13.84Q51.41 14.23 50.76 14.45Q50.11 14.67 49.33 14.67L49.25 14.67ZM49.16 6.09L49.25 6L49.33 6Q50.11 6 50.76 6.22Q51.41 6.43 51.93 6.82Q52.45 7.21 52.84 7.73Q53.23 8.25 53.45 8.9Q53.67 9.55 53.67 10.33L53.67 10.42L53.58 10.51L49.16 10.51L49.16 10.51Q49.16 10.51 49.16 10.51Q49.16 10.51 49.16 10.51Q49.16 10.51 49.16 10.51Q49.16 10.51 49.16 10.51Q49.16 10.51 49.16 10.51L49.16 10.51ZM49.51 6.09L49.51 10.51L49.51 10.51Q49.51 10.51 49.51 10.51Q49.51 10.51 49.51 10.51Q49.51 10.51 49.51 10.51Q49.51 10.51 49.51 10.51Q49.51 10.51 49.51 10.51L49.51 10.51L45.09 10.51L45 10.42L45 10.33Q45 9.55 45.22 8.9Q45.43 8.25 45.82 7.73Q46.21 7.21 46.73 6.82Q47.25 6.43 47.9 6.22Q48.55 6 49.33 6L49.42 6Z"/>
</svg>
